<svg width="75" height="61" viewBox="0 0 75 61" fill="none" xmlns="http://www.w3.org/2000/svg">
<path d="M7.03125 0C5.16645 0 3.37802 0.803345 2.05941 2.23331C0.74079 3.66327 0 5.60272 0 7.625V17.7917C0 19.8139 0.74079 21.7534 2.05941 23.1834C3.37802 24.6133 5.16645 25.4167 7.03125 25.4167H16.4062C18.2711 25.4167 20.0595 24.6133 21.3781 23.1834C22.6967 21.7534 23.4375 19.8139 23.4375 17.7917V7.625C23.4375 5.60272 22.6967 3.66327 21.3781 2.23331C20.0595 0.803345 18.2711 0 16.4062 0H7.03125ZM35.1562 5.08333C34.5346 5.08333 33.9385 5.35112 33.499 5.82777C33.0594 6.30443 32.8125 6.95091 32.8125 7.625C32.8125 8.29909 33.0594 8.94557 33.499 9.42223C33.9385 9.89888 34.5346 10.1667 35.1562 10.1667H72.6562C73.2779 10.1667 73.874 9.89888 74.3135 9.42223C74.7531 8.94557 75 8.29909 75 7.625C75 6.95091 74.7531 6.30443 74.3135 5.82777C73.874 5.35112 73.2779 5.08333 72.6562 5.08333H35.1562ZM35.1562 15.25C34.5346 15.25 33.9385 15.5178 33.499 15.9944C33.0594 16.4711 32.8125 17.1176 32.8125 17.7917C32.8125 18.4658 33.0594 19.1122 33.499 19.5889C33.9385 20.0656 34.5346 20.3333 35.1562 20.3333H63.2812C63.9029 20.3333 64.499 20.0656 64.9385 19.5889C65.3781 19.1122 65.625 18.4658 65.625 17.7917C65.625 17.1176 65.3781 16.4711 64.9385 15.9944C64.499 15.5178 63.9029 15.25 63.2812 15.25H35.1562ZM7.03125 35.5833C5.16645 35.5833 3.37802 36.3867 2.05941 37.8166C0.74079 39.2466 0 41.1861 0 43.2083V53.375C0 55.3973 0.74079 57.3367 2.05941 58.7667C3.37802 60.1967 5.16645 61 7.03125 61H16.4062C18.2711 61 20.0595 60.1967 21.3781 58.7667C22.6967 57.3367 23.4375 55.3973 23.4375 53.375V43.2083C23.4375 41.1861 22.6967 39.2466 21.3781 37.8166C20.0595 36.3867 18.2711 35.5833 16.4062 35.5833H7.03125ZM35.1562 40.6667C34.5346 40.6667 33.9385 40.9344 33.499 41.4111C33.0594 41.8878 32.8125 42.5342 32.8125 43.2083C32.8125 43.8824 33.0594 44.5289 33.499 45.0056C33.9385 45.4822 34.5346 45.75 35.1562 45.75H72.6562C73.2779 45.75 73.874 45.4822 74.3135 45.0056C74.7531 44.5289 75 43.8824 75 43.2083C75 42.5342 74.7531 41.8878 74.3135 41.4111C73.874 40.9344 73.2779 40.6667 72.6562 40.6667H35.1562ZM35.1562 50.8333C34.5346 50.8333 33.9385 51.1011 33.499 51.5778C33.0594 52.0544 32.8125 52.7009 32.8125 53.375C32.8125 54.0491 33.0594 54.6956 33.499 55.1722C33.9385 55.6489 34.5346 55.9167 35.1562 55.9167H63.2812C63.9029 55.9167 64.499 55.6489 64.9385 55.1722C65.3781 54.6956 65.625 54.0491 65.625 53.375C65.625 52.7009 65.3781 52.0544 64.9385 51.5778C64.499 51.1011 63.9029 50.8333 63.2812 50.8333H35.1562Z" fill="white"/>
</svg>
