<svg width="63" height="62" viewBox="0 0 63 62" fill="none" xmlns="http://www.w3.org/2000/svg">
<path d="M49.875 16.7917C45.5438 16.7917 42 15.6292 42 14.2084V16.7917C42 18.2125 45.5438 19.375 49.875 19.375C54.2063 19.375 57.75 18.2125 57.75 16.7917V14.2084C57.75 15.6292 54.2063 16.7917 49.875 16.7917Z" fill="#1D5F00"/>
<path d="M49.875 12.9167C45.5438 12.9167 42 11.7542 42 10.3334V12.9167C42 14.3375 45.5438 15.5 49.875 15.5C54.2063 15.5 57.75 14.3375 57.75 12.9167V10.3334C57.75 11.7542 54.2063 12.9167 49.875 12.9167ZM49.875 20.6667C45.5438 20.6667 42 19.5042 42 18.0834V20.6667C42 22.0875 45.5438 23.25 49.875 23.25C54.2063 23.25 57.75 22.0875 57.75 20.6667V18.0834C57.75 19.5042 54.2063 20.6667 49.875 20.6667Z" fill="#1D5F00"/>
<path d="M49.875 24.5417C45.5438 24.5417 42 23.3792 42 21.9584V24.5417C42 25.9625 45.5438 27.125 49.875 27.125C54.2063 27.125 57.75 25.9625 57.75 24.5417V21.9584C57.75 23.3792 54.2063 24.5417 49.875 24.5417Z" fill="#1D5F00"/>
<path d="M49.875 28.4167C45.5438 28.4167 42 27.2542 42 25.8334V28.4167C42 29.8375 45.5438 31 49.875 31C54.2063 31 57.75 29.8375 57.75 28.4167V25.8334C57.75 27.2542 54.2063 28.4167 49.875 28.4167Z" fill="#1D5F00"/>
<path d="M49.875 32.2917C45.5438 32.2917 42 31.1292 42 29.7084V32.2917C42 33.7125 45.5438 34.875 49.875 34.875C54.2063 34.875 57.75 33.7125 57.75 32.2917V29.7084C57.75 31.1292 54.2063 32.2917 49.875 32.2917Z" fill="#1D5F00"/>
<path d="M49.875 36.1667C45.5438 36.1667 42 35.0042 42 33.5834V36.1667C42 37.5875 45.5438 38.75 49.875 38.75C54.2063 38.75 57.75 37.5875 57.75 36.1667V33.5834C57.75 35.0042 54.2063 36.1667 49.875 36.1667Z" fill="#1D5F00"/>
<path d="M49.875 40.0417C45.5438 40.0417 42 38.8792 42 37.4584V40.0417C42 41.4625 45.5438 42.625 49.875 42.625C54.2063 42.625 57.75 41.4625 57.75 40.0417V37.4584C57.75 38.8792 54.2063 40.0417 49.875 40.0417Z" fill="#1D5F00"/>
<path d="M49.875 43.9167C45.5438 43.9167 42 42.7542 42 41.3334V43.9167C42 45.3375 45.5438 46.5 49.875 46.5C54.2063 46.5 57.75 45.3375 57.75 43.9167V41.3334C57.75 42.7542 54.2063 43.9167 49.875 43.9167Z" fill="#1D5F00"/>
<path d="M49.875 47.7917C45.5438 47.7917 42 46.6292 42 45.2084V47.7917C42 49.2125 45.5438 50.375 49.875 50.375C54.2063 50.375 57.75 49.2125 57.75 47.7917V45.2084C57.75 46.6292 54.2063 47.7917 49.875 47.7917Z" fill="#1D5F00"/>
<path d="M49.875 51.6667C45.5438 51.6667 42 50.5042 42 49.0834V51.6667C42 53.0875 45.5438 54.25 49.875 54.25C54.2063 54.25 57.75 53.0875 57.75 51.6667V49.0834C57.75 50.5042 54.2063 51.6667 49.875 51.6667Z" fill="#1D5F00"/>
<path d="M49.875 12.9167C54.2242 12.9167 57.75 11.7601 57.75 10.3333C57.75 8.9066 54.2242 7.75 49.875 7.75C45.5258 7.75 42 8.9066 42 10.3333C42 11.7601 45.5258 12.9167 49.875 12.9167Z" fill="white"/>
<path d="M49.875 15.5C46.2 15.5 43.1813 14.725 42.2625 13.5625C42.1313 13.8208 42 13.95 42 14.2083C42 15.6292 45.5438 16.7917 49.875 16.7917C54.2063 16.7917 57.75 15.6292 57.75 14.2083C57.75 13.95 57.6187 13.8208 57.4875 13.5625C56.5687 14.725 53.55 15.5 49.875 15.5ZM49.875 19.375C46.2 19.375 43.1813 18.6 42.2625 17.4375C42.1313 17.6958 42 17.825 42 18.0833C42 19.5042 45.5438 20.6667 49.875 20.6667C54.2063 20.6667 57.75 19.5042 57.75 18.0833C57.75 17.825 57.6187 17.6958 57.4875 17.4375C56.5687 18.6 53.55 19.375 49.875 19.375ZM49.875 23.25C46.2 23.25 43.1813 22.475 42.2625 21.3125C42.1313 21.5708 42 21.7 42 21.9583C42 23.3792 45.5438 24.5417 49.875 24.5417C54.2063 24.5417 57.75 23.3792 57.75 21.9583C57.75 21.7 57.6187 21.5708 57.4875 21.3125C56.5687 22.475 53.55 23.25 49.875 23.25ZM49.875 27.125C46.2 27.125 43.1813 26.35 42.2625 25.1875C42.1313 25.4458 42 25.575 42 25.8333C42 27.2542 45.5438 28.4167 49.875 28.4167C54.2063 28.4167 57.75 27.2542 57.75 25.8333C57.75 25.575 57.6187 25.4458 57.4875 25.1875C56.5687 26.35 53.55 27.125 49.875 27.125ZM49.875 31C46.2 31 43.1813 30.225 42.2625 29.0625C42.1313 29.3208 42 29.45 42 29.7083C42 31.1292 45.5438 32.2917 49.875 32.2917C54.2063 32.2917 57.75 31.1292 57.75 29.7083C57.75 29.45 57.6187 29.3208 57.4875 29.0625C56.5687 30.225 53.55 31 49.875 31ZM49.875 34.875C46.2 34.875 43.1813 34.1 42.2625 32.9375C42.1313 33.1958 42 33.325 42 33.5833C42 35.0042 45.5438 36.1667 49.875 36.1667C54.2063 36.1667 57.75 35.0042 57.75 33.5833C57.75 33.325 57.6187 33.1958 57.4875 32.9375C56.5687 34.1 53.55 34.875 49.875 34.875ZM49.875 38.75C46.2 38.75 43.1813 37.975 42.2625 36.8125C42.1313 37.0708 42 37.2 42 37.4583C42 38.8792 45.5438 40.0417 49.875 40.0417C54.2063 40.0417 57.75 38.8792 57.75 37.4583C57.75 37.2 57.6187 37.0708 57.4875 36.8125C56.5687 37.975 53.55 38.75 49.875 38.75ZM49.875 42.625C46.2 42.625 43.1813 41.85 42.2625 40.6875C42.1313 40.9458 42 41.075 42 41.3333C42 42.7542 45.5438 43.9167 49.875 43.9167C54.2063 43.9167 57.75 42.7542 57.75 41.3333C57.75 41.075 57.6187 40.9458 57.4875 40.6875C56.5687 41.85 53.55 42.625 49.875 42.625ZM49.875 46.5C46.2 46.5 43.1813 45.725 42.2625 44.5625C42.1313 44.8208 42 44.95 42 45.2083C42 46.6292 45.5438 47.7917 49.875 47.7917C54.2063 47.7917 57.75 46.6292 57.75 45.2083C57.75 44.95 57.6187 44.8208 57.4875 44.5625C56.5687 45.725 53.55 46.5 49.875 46.5ZM49.875 50.375C46.2 50.375 43.1813 49.6 42.2625 48.4375C42.1313 48.6958 42 48.825 42 49.0833C42 50.5042 45.5438 51.6667 49.875 51.6667C54.2063 51.6667 57.75 50.5042 57.75 49.0833C57.75 48.825 57.6187 48.6958 57.4875 48.4375C56.5687 49.6 53.55 50.375 49.875 50.375Z" fill="white"/>
<path d="M13.125 24.5417C8.79375 24.5417 5.25 23.3792 5.25 21.9584V24.5417C5.25 25.9625 8.79375 27.125 13.125 27.125C17.4563 27.125 21 25.9625 21 24.5417V21.9584C21 23.3792 17.4563 24.5417 13.125 24.5417Z" fill="#1D5F00"/>
<path d="M13.125 20.6667C8.79375 20.6667 5.25 19.5042 5.25 18.0834V20.6667C5.25 22.0875 8.79375 23.25 13.125 23.25C17.4563 23.25 21 22.0875 21 20.6667V18.0834C21 19.5042 17.4563 20.6667 13.125 20.6667ZM13.125 28.4167C8.79375 28.4167 5.25 27.2542 5.25 25.8334V28.4167C5.25 29.8375 8.79375 31 13.125 31C17.4563 31 21 29.8375 21 28.4167V25.8334C21 27.2542 17.4563 28.4167 13.125 28.4167Z" fill="#1D5F00"/>
<path d="M13.125 32.2917C8.79375 32.2917 5.25 31.1292 5.25 29.7084V32.2917C5.25 33.7125 8.79375 34.875 13.125 34.875C17.4563 34.875 21 33.7125 21 32.2917V29.7084C21 31.1292 17.4563 32.2917 13.125 32.2917Z" fill="#1D5F00"/>
<path d="M13.125 36.1667C8.79375 36.1667 5.25 35.0042 5.25 33.5834V36.1667C5.25 37.5875 8.79375 38.75 13.125 38.75C17.4563 38.75 21 37.5875 21 36.1667V33.5834C21 35.0042 17.4563 36.1667 13.125 36.1667Z" fill="#1D5F00"/>
<path d="M13.125 40.0417C8.79375 40.0417 5.25 38.8792 5.25 37.4584V40.0417C5.25 41.4625 8.79375 42.625 13.125 42.625C17.4563 42.625 21 41.4625 21 40.0417V37.4584C21 38.8792 17.4563 40.0417 13.125 40.0417Z" fill="#1D5F00"/>
<path d="M13.125 43.9167C8.79375 43.9167 5.25 42.7542 5.25 41.3334V43.9167C5.25 45.3375 8.79375 46.5 13.125 46.5C17.4563 46.5 21 45.3375 21 43.9167V41.3334C21 42.7542 17.4563 43.9167 13.125 43.9167Z" fill="#1D5F00"/>
<path d="M13.125 47.7917C8.79375 47.7917 5.25 46.6292 5.25 45.2084V47.7917C5.25 49.2125 8.79375 50.375 13.125 50.375C17.4563 50.375 21 49.2125 21 47.7917V45.2084C21 46.6292 17.4563 47.7917 13.125 47.7917Z" fill="#1D5F00"/>
<path d="M13.125 51.6667C8.79375 51.6667 5.25 50.5042 5.25 49.0834V51.6667C5.25 53.0875 8.79375 54.25 13.125 54.25C17.4563 54.25 21 53.0875 21 51.6667V49.0834C21 50.5042 17.4563 51.6667 13.125 51.6667Z" fill="#1D5F00"/>
<path d="M13.125 20.7143C17.4742 20.7143 21 19.547 21 18.1071C21 16.6673 17.4742 15.5 13.125 15.5C8.77576 15.5 5.25 16.6673 5.25 18.1071C5.25 19.547 8.77576 20.7143 13.125 20.7143Z" fill="white"/>
<path d="M13.125 23.3214C9.45 23.3214 6.43125 22.5393 5.5125 21.3661C5.38125 21.6268 5.25 21.7572 5.25 22.0179C5.25 23.4518 8.79375 24.625 13.125 24.625C17.4563 24.625 21 23.4518 21 22.0179C21 21.7572 20.8688 21.6268 20.7375 21.3661C19.8188 22.5393 16.8 23.3214 13.125 23.3214ZM13.125 27.2322C9.45 27.2322 6.43125 26.45 5.5125 25.2768C5.38125 25.5375 5.25 25.6679 5.25 25.9286C5.25 27.3625 8.79375 28.5357 13.125 28.5357C17.4563 28.5357 21 27.3625 21 25.9286C21 25.6679 20.8688 25.5375 20.7375 25.2768C19.8188 26.45 16.8 27.2322 13.125 27.2322ZM13.125 31.1429C9.45 31.1429 6.43125 30.3607 5.5125 29.1875C5.38125 29.4482 5.25 29.5786 5.25 29.8393C5.25 31.2732 8.79375 32.4464 13.125 32.4464C17.4563 32.4464 21 31.2732 21 29.8393C21 29.5786 20.8688 29.4482 20.7375 29.1875C19.8188 30.3607 16.8 31.1429 13.125 31.1429ZM13.125 35.0536C9.45 35.0536 6.43125 34.2714 5.5125 33.0982C5.38125 33.3589 5.25 33.4893 5.25 33.75C5.25 35.1839 8.79375 36.3572 13.125 36.3572C17.4563 36.3572 21 35.1839 21 33.75C21 33.4893 20.8688 33.3589 20.7375 33.0982C19.8188 34.2714 16.8 35.0536 13.125 35.0536ZM13.125 38.9643C9.45 38.9643 6.43125 38.1822 5.5125 37.0089C5.38125 37.2697 5.25 37.4 5.25 37.6607C5.25 39.0947 8.79375 40.2679 13.125 40.2679C17.4563 40.2679 21 39.0947 21 37.6607C21 37.4 20.8688 37.2697 20.7375 37.0089C19.8188 38.1822 16.8 38.9643 13.125 38.9643ZM13.125 42.875C9.45 42.875 6.43125 42.0929 5.5125 40.9197C5.38125 41.1804 5.25 41.3107 5.25 41.5714C5.25 43.0054 8.79375 44.1786 13.125 44.1786C17.4563 44.1786 21 43.0054 21 41.5714C21 41.3107 20.8688 41.1804 20.7375 40.9197C19.8188 42.0929 16.8 42.875 13.125 42.875ZM13.125 46.7857C9.45 46.7857 6.43125 46.0036 5.5125 44.8304C5.38125 45.0911 5.25 45.2214 5.25 45.4822C5.25 46.9161 8.79375 48.0893 13.125 48.0893C17.4563 48.0893 21 46.9161 21 45.4822C21 45.2214 20.8688 45.0911 20.7375 44.8304C19.8188 46.0036 16.8 46.7857 13.125 46.7857ZM13.125 50.6964C9.45 50.6964 6.43125 49.9143 5.5125 48.7411C5.38125 49.0018 5.25 49.1322 5.25 49.3929C5.25 50.8268 8.79375 52 13.125 52C17.4563 52 21 50.8268 21 49.3929C21 49.1322 20.8688 49.0018 20.7375 48.7411C19.8188 49.9143 16.8 50.6964 13.125 50.6964Z" fill="white"/>
<path d="M31.5 36.1667C27.1688 36.1667 23.625 35.0042 23.625 33.5834V36.1667C23.625 37.5875 27.1688 38.75 31.5 38.75C35.8313 38.75 39.375 37.5875 39.375 36.1667V33.5834C39.375 35.0042 35.8313 36.1667 31.5 36.1667Z" fill="#1D5F00"/>
<path d="M31.5 32.2917C27.1688 32.2917 23.625 31.1292 23.625 29.7084V32.2917C23.625 33.7125 27.1688 34.875 31.5 34.875C35.8313 34.875 39.375 33.7125 39.375 32.2917V29.7084C39.375 31.1292 35.8313 32.2917 31.5 32.2917ZM31.5 40.0417C27.1688 40.0417 23.625 38.8792 23.625 37.4584V40.0417C23.625 41.4625 27.1688 42.625 31.5 42.625C35.8313 42.625 39.375 41.4625 39.375 40.0417V37.4584C39.375 38.8792 35.8313 40.0417 31.5 40.0417Z" fill="#1D5F00"/>
<path d="M31.5 43.9167C27.1688 43.9167 23.625 42.7542 23.625 41.3334V43.9167C23.625 45.3375 27.1688 46.5 31.5 46.5C35.8313 46.5 39.375 45.3375 39.375 43.9167V41.3334C39.375 42.7542 35.8313 43.9167 31.5 43.9167Z" fill="#1D5F00"/>
<path d="M31.5 47.7917C27.1688 47.7917 23.625 46.6292 23.625 45.2084V47.7917C23.625 49.2125 27.1688 50.375 31.5 50.375C35.8313 50.375 39.375 49.2125 39.375 47.7917V45.2084C39.375 46.6292 35.8313 47.7917 31.5 47.7917Z" fill="#1D5F00"/>
<path d="M31.5 51.6667C27.1688 51.6667 23.625 50.5042 23.625 49.0834V51.6667C23.625 53.0875 27.1688 54.25 31.5 54.25C35.8313 54.25 39.375 53.0875 39.375 51.6667V49.0834C39.375 50.5042 35.8313 51.6667 31.5 51.6667Z" fill="#1D5F00"/>
<path d="M31.5 32.2917C35.8492 32.2917 39.375 31.1351 39.375 29.7083C39.375 28.2816 35.8492 27.125 31.5 27.125C27.1508 27.125 23.625 28.2816 23.625 29.7083C23.625 31.1351 27.1508 32.2917 31.5 32.2917Z" fill="white"/>
<path d="M31.5 34.875C27.825 34.875 24.8063 34.1 23.8875 32.9375C23.7563 33.1958 23.625 33.325 23.625 33.5833C23.625 35.0042 27.1688 36.1667 31.5 36.1667C35.8313 36.1667 39.375 35.0042 39.375 33.5833C39.375 33.325 39.2437 33.1958 39.1125 32.9375C38.1937 34.1 35.175 34.875 31.5 34.875ZM31.5 38.75C27.825 38.75 24.8063 37.975 23.8875 36.8125C23.7563 37.0708 23.625 37.2 23.625 37.4583C23.625 38.8792 27.1688 40.0417 31.5 40.0417C35.8313 40.0417 39.375 38.8792 39.375 37.4583C39.375 37.2 39.2437 37.0708 39.1125 36.8125C38.1937 37.975 35.175 38.75 31.5 38.75ZM31.5 42.625C27.825 42.625 24.8063 41.85 23.8875 40.6875C23.7563 40.9458 23.625 41.075 23.625 41.3333C23.625 42.7542 27.1688 43.9167 31.5 43.9167C35.8313 43.9167 39.375 42.7542 39.375 41.3333C39.375 41.075 39.2437 40.9458 39.1125 40.6875C38.1937 41.85 35.175 42.625 31.5 42.625ZM31.5 46.5C27.825 46.5 24.8063 45.725 23.8875 44.5625C23.7563 44.8208 23.625 44.95 23.625 45.2083C23.625 46.6292 27.1688 47.7917 31.5 47.7917C35.8313 47.7917 39.375 46.6292 39.375 45.2083C39.375 44.95 39.2437 44.8208 39.1125 44.5625C38.1937 45.725 35.175 46.5 31.5 46.5ZM31.5 50.375C27.825 50.375 24.8063 49.6 23.8875 48.4375C23.7563 48.6958 23.625 48.825 23.625 49.0833C23.625 50.5042 27.1688 51.6667 31.5 51.6667C35.8313 51.6667 39.375 50.5042 39.375 49.0833C39.375 48.825 39.2437 48.6958 39.1125 48.4375C38.1937 49.6 35.175 50.375 31.5 50.375Z" fill="white"/>
</svg>
