<svg width="59" height="72" viewBox="0 0 59 72" fill="none" xmlns="http://www.w3.org/2000/svg">
<path d="M14.2222 23.4739H2V52.1055H14.2222V23.4739Z" fill="#1D5F00" stroke="white" stroke-width="4" stroke-linejoin="round"/>
<path d="M8.11133 5.57886V23.4736V5.57886Z" fill="#1D5F00"/>
<path d="M8.11133 5.57886V23.4736" stroke="white" stroke-width="4" stroke-linecap="round" stroke-linejoin="round"/>
<path d="M8.11133 52.1052V70V52.1052Z" fill="#1D5F00"/>
<path d="M8.11133 52.1052V70" stroke="white" stroke-width="4" stroke-linecap="round" stroke-linejoin="round"/>
<path d="M57.0001 23.4739H44.7778V52.1055H57.0001V23.4739Z" fill="#1D5F00" stroke="white" stroke-width="4" stroke-linejoin="round"/>
<path d="M50.8887 5.57886V23.4736V5.57886Z" fill="#1D5F00"/>
<path d="M50.8887 5.57886V23.4736" stroke="white" stroke-width="4" stroke-linecap="round" stroke-linejoin="round"/>
<path d="M50.8887 52.1052V70V52.1052Z" fill="#1D5F00"/>
<path d="M50.8887 52.1052V70" stroke="white" stroke-width="4" stroke-linecap="round" stroke-linejoin="round"/>
<path d="M35.6109 19.8948H23.3887V48.5264H35.6109V19.8948Z" fill="#1D5F00" stroke="white" stroke-width="4" stroke-linejoin="round"/>
<path d="M29.5 2V19.8947V2Z" fill="#1D5F00"/>
<path d="M29.5 2V19.8947" stroke="white" stroke-width="4" stroke-linecap="round" stroke-linejoin="round"/>
<path d="M29.5 48.5261V66.4209V48.5261Z" fill="#1D5F00"/>
<path d="M29.5 48.5261V66.4209" stroke="white" stroke-width="4" stroke-linecap="round" stroke-linejoin="round"/>
</svg>
